<?xml version="1.0" encoding="UTF-8" standalone="no"?>
<svg width="121px" height="31px" viewBox="0 0 121 31" version="1.1" xmlns="http://www.w3.org/2000/svg" xmlns:xlink="http://www.w3.org/1999/xlink">
    <g id="bluprint-logo---white" stroke="none" stroke-width="1" fill="none" fill-rule="evenodd" transform="translate(-2.000000, -8.000000)">
        <path d="M6.976,32 L2.08,32 L2.08,9.6 L6.976,9.6 L6.976,18.784 C7.16800096,18.442665 7.4239984,18.1120016 7.744,17.792 C8.0640016,17.4719984 8.4373312,17.1946678 8.864,16.96 C9.2906688,16.7253322 9.7439976,16.5386674 10.224,16.4 C10.7040024,16.2613326 11.1999974,16.192 11.712,16.192 C12.8213389,16.192 13.8399954,16.3999979 14.768,16.816 C15.6960046,17.2320021 16.4906634,17.7973298 17.152,18.512 C17.8133366,19.2266702 18.3253315,20.079995 18.688,21.072 C19.0506685,22.064005 19.232,23.1359942 19.232,24.288 C19.232,25.4400058 19.0506685,26.511995 18.688,27.504 C18.3253315,28.496005 17.8133366,29.3493298 17.152,30.064 C16.4906634,30.7786702 15.6960046,31.3439979 14.768,31.76 C13.8399954,32.1760021 12.8213389,32.384 11.712,32.384 C11.1999974,32.384 10.7040024,32.3146674 10.224,32.176 C9.7439976,32.0373326 9.2906688,31.8560011 8.864,31.632 C8.4373312,31.4079989 8.0640016,31.1413349 7.744,30.832 C7.4239984,30.5226651 7.16800096,30.1866685 6.976,29.824 L6.976,32 Z M10.688,28.224 C11.221336,28.224 11.7119978,28.1173344 12.16,27.904 C12.6080022,27.6906656 12.9919984,27.4080018 13.312,27.056 C13.6320016,26.7039982 13.8826658,26.2880024 14.064,25.808 C14.2453342,25.3279976 14.336,24.821336 14.336,24.288 C14.336,23.754664 14.2453342,23.2533357 14.064,22.784 C13.8826658,22.3146643 13.6320016,21.8986685 13.312,21.536 C12.9919984,21.1733315 12.6080022,20.8853344 12.16,20.672 C11.7119978,20.4586656 11.221336,20.352 10.688,20.352 C10.1333306,20.352 9.62666896,20.4586656 9.168,20.672 C8.70933104,20.8853344 8.3200016,21.1733315 8,21.536 C7.6799984,21.8986685 7.42933424,22.3146643 7.248,22.784 C7.06666576,23.2533357 6.976,23.754664 6.976,24.288 C6.976,24.821336 7.06666576,25.3279976 7.248,25.808 C7.42933424,26.2880024 7.6799984,26.7039982 8,27.056 C8.3200016,27.4080018 8.70933104,27.6906656 9.168,27.904 C9.62666896,28.1173344 10.1333306,28.224 10.688,28.224 Z M22.464,9.6 L27.36,9.6 L27.36,32 L22.464,32 L22.464,9.6 Z M32.096,11.84 C32.096,11.4346646 32.1759992,11.0453352 32.336,10.672 C32.4960008,10.2986648 32.709332,9.978668 32.976,9.712 C33.242668,9.445332 33.5573315,9.2320008 33.92,9.072 C34.2826685,8.9119992 34.6773312,8.832 35.104,8.832 C35.5306688,8.832 35.9306648,8.9119992 36.304,9.072 C36.6773352,9.2320008 37.0026653,9.445332 37.28,9.712 C37.5573347,9.978668 37.7759992,10.2986648 37.936,10.672 C38.0960008,11.0453352 38.176,11.4346646 38.176,11.84 C38.176,12.2453354 38.0960008,12.6293315 37.936,12.992 C37.7759992,13.3546685 37.5573347,13.669332 37.28,13.936 C37.0026653,14.202668 36.6773352,14.4159992 36.304,14.576 C35.9306648,14.7360008 35.5306688,14.816 35.104,14.816 C34.6773312,14.816 34.2826685,14.7360008 33.92,14.576 C33.5573315,14.4159992 33.242668,14.202668 32.976,13.936 C32.709332,13.669332 32.4960008,13.3546685 32.336,12.992 C32.1759992,12.6293315 32.096,12.2453354 32.096,11.84 Z M39.808,11.84 C39.808,11.0079958 40.0959971,10.2986696 40.672,9.712 C41.2480029,9.1253304 41.9626624,8.832 42.816,8.832 C43.2426688,8.832 43.6426648,8.9119992 44.016,9.072 C44.3893352,9.2320008 44.709332,9.445332 44.976,9.712 C45.242668,9.978668 45.4559992,10.2986648 45.616,10.672 C45.7760008,11.0453352 45.856,11.4346646 45.856,11.84 C45.856,12.2453354 45.7760008,12.6293315 45.616,12.992 C45.4559992,13.3546685 45.242668,13.669332 44.976,13.936 C44.709332,14.202668 44.3893352,14.4159992 44.016,14.576 C43.6426648,14.7360008 43.2426688,14.816 42.816,14.816 C42.3893312,14.816 41.9946685,14.7360008 41.632,14.576 C41.2693315,14.4159992 40.9493347,14.202668 40.672,13.936 C40.3946653,13.669332 40.1813341,13.3546685 40.032,12.992 C39.8826659,12.6293315 39.808,12.2453354 39.808,11.84 Z M46.784,32 L41.888,32 L41.888,29.792 C41.4613312,30.6026707 40.8160043,31.237331 39.952,31.696 C39.0879957,32.154669 38.0480061,32.384 36.832,32.384 C35.8293283,32.384 34.965337,32.2293349 34.24,31.92 C33.514663,31.6106651 32.9386688,31.1786694 32.512,30.624 C32.0213309,30.0266637 31.7013341,29.3386706 31.552,28.56 C31.4026659,27.7813294 31.328,26.8373389 31.328,25.728 L31.328,16.576 L36.192,16.576 L36.192,24.48 C36.192,25.5893389 36.3893314,26.4906632 36.784,27.184 C37.1786686,27.8773368 37.8879949,28.224 38.912,28.224 C39.9360051,28.224 40.6879976,27.8720035 41.168,27.168 C41.6480024,26.4639965 41.888,25.5146726 41.888,24.32 L41.888,16.576 L46.784,16.576 L46.784,32 Z M59.552,20.352 C58.9973306,20.352 58.490669,20.4586656 58.032,20.672 C57.573331,20.8853344 57.1840016,21.1679982 56.864,21.52 C56.5439984,21.8720018 56.2933342,22.2879976 56.112,22.768 C55.9306658,23.2480024 55.84,23.754664 55.84,24.288 C55.84,24.821336 55.9306658,25.3279976 56.112,25.808 C56.2933342,26.2880024 56.5439984,26.7039982 56.864,27.056 C57.1840016,27.4080018 57.573331,27.6906656 58.032,27.904 C58.490669,28.1173344 58.9973306,28.224 59.552,28.224 C60.085336,28.224 60.5759978,28.1173344 61.024,27.904 C61.4720022,27.6906656 61.8559984,27.4080018 62.176,27.056 C62.4960016,26.7039982 62.7466658,26.2880024 62.928,25.808 C63.1093342,25.3279976 63.2,24.821336 63.2,24.288 C63.2,23.754664 63.1093342,23.2480024 62.928,22.768 C62.7466658,22.2879976 62.4960016,21.8720018 62.176,21.52 C61.8559984,21.1679982 61.4720022,20.8853344 61.024,20.672 C60.5759978,20.4586656 60.085336,20.352 59.552,20.352 Z M55.84,18.784 C56.032001,18.442665 56.2879984,18.1120016 56.608,17.792 C56.9280016,17.4719984 57.3013312,17.1946678 57.728,16.96 C58.1546688,16.7253322 58.6079976,16.5386674 59.088,16.4 C59.5680024,16.2613326 60.0639974,16.192 60.576,16.192 C61.6853389,16.192 62.7039954,16.3999979 63.632,16.816 C64.5600046,17.2320021 65.3546634,17.7973298 66.016,18.512 C66.6773366,19.2266702 67.1893315,20.079995 67.552,21.072 C67.9146685,22.064005 68.096,23.1359942 68.096,24.288 C68.096,25.4400058 67.9146685,26.511995 67.552,27.504 C67.1893315,28.496005 66.6773366,29.3493298 66.016,30.064 C65.3546634,30.7786702 64.5600046,31.3439979 63.632,31.76 C62.7039954,32.1760021 61.6853389,32.384 60.576,32.384 C60.0639974,32.384 59.5680024,32.3146674 59.088,32.176 C58.6079976,32.0373326 58.1546688,31.8506678 57.728,31.616 C57.3013312,31.3813322 56.9280016,31.1093349 56.608,30.8 C56.2879984,30.4906651 56.032001,30.1546685 55.84,29.792 L55.84,38.976 L50.944,38.976 L50.944,16.576 L55.84,16.576 L55.84,18.784 Z M82.4,21.024 C82.058665,20.9386662 81.7706678,20.8800002 81.536,20.848 C81.3013322,20.8159998 81.013335,20.8 80.672,20.8 C79.3279933,20.8 78.2506707,21.1946627 77.44,21.984 C76.6293293,22.7733373 76.224,24.1066573 76.224,25.984 L76.224,32 L71.328,32 L71.328,16.576 L76.224,16.576 L76.224,19.072 C76.5866685,18.346663 77.1893291,17.7066694 78.032,17.152 C78.8746709,16.5973306 79.8399946,16.32 80.928,16.32 C81.5040029,16.32 81.9946646,16.4053325 82.4,16.576 L82.4,21.024 Z M83.968,11.456 C83.968,10.581329 84.2666637,9.84533632 84.864,9.248 C85.4613363,8.65066368 86.2079955,8.352 87.104,8.352 C87.5520022,8.352 87.9679981,8.4319992 88.352,8.592 C88.7360019,8.7520008 89.0719986,8.97066528 89.36,9.248 C89.6480014,9.52533472 89.8719992,9.85599808 90.032,10.24 C90.1920008,10.6240019 90.272,11.0293312 90.272,11.456 C90.272,11.8826688 90.1920008,12.2826648 90.032,12.656 C89.8719992,13.0293352 89.6480014,13.3599986 89.36,13.648 C89.0719986,13.9360014 88.7360019,14.1599992 88.352,14.32 C87.9679981,14.4800008 87.5520022,14.56 87.104,14.56 C86.6559978,14.56 86.2453352,14.4800008 85.872,14.32 C85.4986648,14.1599992 85.1680014,13.9360014 84.88,13.648 C84.5919986,13.3599986 84.3680008,13.0293352 84.208,12.656 C84.0479992,12.2826648 83.968,11.8826688 83.968,11.456 Z M84.672,16.576 L89.568,16.576 L89.568,32 L84.672,32 L84.672,16.576 Z M93.728,16.576 L98.624,16.576 L98.624,18.816 C99.0506688,17.9839958 99.6959957,17.338669 100.56,16.88 C101.424004,16.421331 102.463994,16.192 103.68,16.192 C104.682672,16.192 105.546663,16.3466651 106.272,16.656 C106.997337,16.9653349 107.573331,17.3973306 108,17.952 C108.490669,18.5493363 108.815999,19.2373294 108.976,20.016 C109.136001,20.7946706 109.216,21.7386611 109.216,22.848 L109.216,32 L104.32,32 L104.32,24.096 C104.32,22.9866611 104.122669,22.0853368 103.728,21.392 C103.333331,20.6986632 102.624005,20.352 101.6,20.352 C100.597328,20.352 99.8506691,20.7039965 99.36,21.408 C98.8693309,22.1120035 98.624,23.0613274 98.624,24.256 L98.624,32 L93.728,32 L93.728,16.576 Z M122.784,32 C122.421332,32.0640003 121.968003,32.1226664 121.424,32.176 C120.879997,32.2293336 120.245337,32.256 119.52,32.256 C118.943997,32.256 118.336003,32.2133338 117.696,32.128 C117.055997,32.0426662 116.464003,31.8240018 115.92,31.472 C115.375997,31.1199982 114.928002,30.5760037 114.576,29.84 C114.223998,29.1039963 114.048,28.0960064 114.048,26.816 L114.048,20.224 L111.616,20.224 L111.616,16.576 L114.048,16.576 L114.048,12 L118.912,12 L118.912,16.576 L122.432,16.576 L122.432,20.224 L118.912,20.224 L118.912,25.728 C118.912,26.3040029 118.965333,26.762665 119.072,27.104 C119.178667,27.445335 119.327999,27.7066658 119.52,27.888 C119.712001,28.0693342 119.935999,28.1919997 120.192,28.256 C120.448001,28.3200003 120.725332,28.352 121.024,28.352 C121.322668,28.352 121.631998,28.3466667 121.952,28.336 C122.272002,28.3253333 122.549332,28.2986669 122.784,28.256 L122.784,32 Z" id="blüprint" fill="#FFFFFF"></path>
    </g>
</svg>
