<?xml version="1.0" encoding="UTF-8" standalone="no"?>
<svg width="23px" height="22px" viewBox="0 0 23 22" version="1.1" xmlns="http://www.w3.org/2000/svg" xmlns:xlink="http://www.w3.org/1999/xlink">
    <defs>
        <polygon id="path-1" points="0 13.4574926 0 26.9149851 15.7486448 26.9149851 15.7486448 0 0 0"></polygon>
    </defs>
    <g id="Desktop-nav---white" stroke="none" stroke-width="1" fill="none" fill-rule="evenodd" transform="translate(-1306.000000, -40.000000)">
        <g id="search" transform="translate(937.000000, 37.000000)">
            <g id="search-icon" transform="translate(365.000000, 0.000000)">
                <g id="search" transform="translate(16.255229, 15.256685) rotate(-50.000000) translate(-16.255229, -15.256685) translate(8.255229, 1.756685)">
                    <mask id="mask-2" fill="white">
                        <use xlink:href="#path-1"></use>
                    </mask>
                    <g id="Clip-2"></g>
                    <path d="M7.87432242,14.112388 C4.43458329,14.112388 1.63625684,11.3140615 1.63625684,7.87432242 C1.63625684,4.43458329 4.43458329,1.63625684 7.87432242,1.63625684 C11.3140615,1.63625684 14.112388,4.43458329 14.112388,7.87432242 C14.112388,11.3140615 11.3140615,14.112388 7.87432242,14.112388 M15.7486448,7.87432242 C15.7486448,3.53235127 12.2162936,0 7.87432242,0 C3.53235127,0 0,3.53235127 0,7.87432242 C0,11.712981 2.76134704,14.9167719 6.40169126,15.6085812 L6.40169126,25.4424849 C6.40169126,26.2557045 7.06110277,26.915116 7.87432242,26.915116 C8.68754207,26.915116 9.34695357,26.2557045 9.34695357,25.4424849 L9.34695357,15.6085812 C12.9872978,14.9167719 15.7486448,11.712981 15.7486448,7.87432242" id="Fill-1" fill="#FFFFFF" mask="url(#mask-2)"></path>
                </g>
            </g>
        </g>
    </g>
</svg>
